<svg width="64" height="64" viewBox="0 0 64 64" fill="none" xmlns="http://www.w3.org/2000/svg">
<path d="M32 64C49.6731 64 64 49.6731 64 32C64 14.3269 49.6731 0 32 0C14.3269 0 0 14.3269 0 32C0 49.6731 14.3269 64 32 64Z" fill="#E8EDF5"/>
<path fill-rule="evenodd" clip-rule="evenodd" d="M17.767 30.5179H16V27.2074C16.702 27.2074 17.161 26.497 17.416 25.7133C18.2965 23.0112 19.801 18.95 23.5 16.4038V21.5261C23.5 22.3533 24.172 23.0247 25 23.0247C25.828 23.0247 26.5 22.3533 26.5 21.5261V14.8767C27.802 14.4136 29.2915 14.1034 31 14V18.5288C31 19.3561 31.672 20.0275 32.5 20.0275C33.328 20.0275 34 19.3561 34 18.5288V14.033C35.701 14.1738 37.192 14.523 38.5 15.0236V21.5261C38.5 22.3533 39.172 23.0247 40 23.0247C40.828 23.0247 41.5 22.3533 41.5 21.5261V16.6271C45.0865 19.1748 46.6945 23.0772 47.5855 25.7133C47.848 26.4925 48.298 27.2074 49 27.2074V30.5179H47.2315C48.094 31.2057 49 32.556 49 35.2101C49 37.6528 47.644 40.734 44.6845 42.0003C41.455 47.1631 37.144 50 32.5 50C27.856 50 23.545 47.1631 20.314 42.0003C17.3545 40.734 16 37.6528 16 35.2101C16 32.556 16.9045 31.2057 17.767 30.5179ZM35.8 41.6961H29.2C29.206 41.7141 30.139 44.3037 32.5 44.3037C34.951 44.3037 35.794 41.7141 35.8 41.6961ZM42.5755 30.5179H22.423L22.4035 31.2897C22.4035 32.2907 21.3805 32.9591 20.4715 32.5545C20.218 32.4421 19.8265 32.4451 19.546 32.6279C18.1705 33.5286 18.3175 38.4186 21.6835 39.5651C23.0575 40.0341 25.2295 44.2153 27.5785 40.1615C28.3915 38.7618 30.955 38.6044 32.5 39.7164C34.0435 38.6044 36.6085 38.7618 37.42 40.1615C39.769 44.2153 41.941 40.0341 43.315 39.5651C46.681 38.4186 46.828 33.5286 45.4525 32.6279C45.13 32.4181 44.722 32.4691 44.5285 32.5545C43.6195 32.9606 42.595 32.2907 42.595 31.2897L42.5755 30.5179ZM28.0315 32.0105C27.0805 32.0105 26.3125 32.9396 26.3125 34.0861C26.3125 35.2325 27.0805 36.1617 28.0315 36.1617C28.9795 36.1617 29.7505 35.2325 29.7505 34.0861C29.7505 32.9396 28.9795 32.0105 28.0315 32.0105ZM38.6875 34.0861C38.6875 35.2325 37.918 36.1617 36.9685 36.1617C36.019 36.1617 35.2495 35.2325 35.2495 34.0861C35.2495 32.9396 36.019 32.0105 36.9685 32.0105C37.918 32.0105 38.6875 32.9396 38.6875 34.0861Z" fill="#2B75E7"/>
</svg>
