<svg width="64" height="64" viewBox="0 0 64 64" fill="none" xmlns="http://www.w3.org/2000/svg">
<path d="M32 64C49.6731 64 64 49.6731 64 32C64 14.3269 49.6731 0 32 0C14.3269 0 0 14.3269 0 32C0 49.6731 14.3269 64 32 64Z" fill="#F7EFE7"/>
<path fill-rule="evenodd" clip-rule="evenodd" d="M39.4963 50H18.4993C16.0157 50 14 47.9813 14 45.4974C14 43.0224 16.0007 41.0113 18.4693 40.9947H39.4963C41.9799 40.9947 43.9956 43.0134 43.9956 45.4974C43.9956 47.9813 41.9799 50 39.4963 50ZM39.4963 43.9965C38.6684 43.9965 37.9965 44.6689 37.9965 45.4974C37.9965 46.3259 38.6684 46.9982 39.4963 46.9982C40.3242 46.9982 40.9961 46.3259 40.9961 45.4974C40.9961 44.6689 40.3242 43.9965 39.4963 43.9965ZM25.3638 43.9965C24.5345 43.9965 23.8641 44.6689 23.8641 45.4974C23.8641 46.3259 24.5345 46.9982 25.3638 46.9982C26.1902 46.9982 26.8636 46.3259 26.8636 45.4974C26.8636 44.6689 26.1902 43.9965 25.3638 43.9965ZM18.4993 43.9965C17.6715 43.9965 16.9996 44.6689 16.9996 45.4974C16.9996 46.3259 17.6715 46.9982 18.4993 46.9982C19.3272 46.9982 19.9991 46.3259 19.9991 45.4974C19.9991 44.6689 19.3272 43.9965 18.4993 43.9965ZM32.5643 43.9965C31.7364 43.9965 31.063 44.6689 31.063 45.4974C31.063 46.3259 31.7364 46.9982 32.5643 46.9982C33.3922 46.9982 34.0641 46.3259 34.0641 45.4974C34.0641 44.6689 33.3922 43.9965 32.5643 43.9965ZM39.0329 39.4939H15.4998C14.5684 39.4939 14 38.7089 14 37.993V30.4886C14 29.5566 14.7844 28.9877 15.4998 28.9877H24.4985V24.4851C24.4985 23.6551 25.1689 22.9842 25.9983 22.9842H30.9865C31.9329 21.7415 35.8008 16.6596 37.4191 14.5793C37.7115 14.2026 38.1525 14 38.6024 14C38.8304 14 39.0583 14.051 39.2728 14.1576L49.3363 19.208C49.7503 19.4137 49.9993 19.8339 49.9993 20.2812C49.9993 20.4358 50.0787 20.2647 48.597 25.6498C48.9374 26.5728 49.3663 27.7615 49.7143 28.7731C49.8928 29.2969 49.9948 29.8147 49.9948 30.3115C49.9948 32.5733 47.6926 33.8161 45.9034 33.4123C43.5877 32.8885 40.5071 32.0465 40.5071 32.0465L46.0428 26.1961L46.4193 21.4834L39.4963 19.2561L37.1011 25.204L40.4786 37.5983C40.7381 38.5483 40.0257 39.4939 39.0329 39.4939ZM16.9996 36.4921H22.9987V34.9912H16.9996V36.4921ZM16.9996 33.4904H22.9987V31.9895H16.9996V33.4904ZM34.2201 25.986H27.498V31.9895H35.7873L34.2201 25.986Z" fill="#F49D44"/>
</svg>
