<svg width="80" height="80" viewBox="0 0 80 80" fill="none" xmlns="http://www.w3.org/2000/svg">
<path d="M40 80C62.0914 80 80 62.0914 80 40C80 17.9086 62.0914 0 40 0C17.9086 0 0 17.9086 0 40C0 62.0914 17.9086 80 40 80Z" fill="#EF645D"/>
<path fill-rule="evenodd" clip-rule="evenodd" d="M40 16C28.956 16 20 24.79 20 35.63C20 46.5197 28.5598 54.0011 39.6322 63.6785L40 64L40.3678 63.6785C51.4402 54.0011 60 46.5197 60 35.63C60 24.79 51.044 16 40 16ZM40 52C31.162 52 24 44.836 24 36C24 27.164 31.162 20 40 20C48.838 20 56 27.164 56 36C56 44.836 48.838 52 40 52ZM38.584 44.084L50 32.83L47.172 30L38.582 38.426L34 34L31.172 36.83L38.584 44.084Z" fill="white"/>
</svg>
