<svg width="112" height="112" viewBox="0 0 112 112" fill="none" xmlns="http://www.w3.org/2000/svg">
<path d="M56 112C86.9279 112 112 86.9279 112 56C112 25.0721 86.9279 0 56 0C25.0721 0 0 25.0721 0 56C0 86.9279 25.0721 112 56 112Z" fill="#EF645D"/>
<path fill-rule="evenodd" clip-rule="evenodd" d="M32 38V74H80V38H32ZM45.246 53.858L36 65.282V46.366L45.246 53.858ZM75.034 42H36.964L56 57.426L75.034 42ZM48.352 56.376L56 62.574L63.66 56.366L74.884 70H37.326L48.352 56.376ZM76 46.366L66.768 53.848L76 65.062V46.366Z" fill="white"/>
</svg>
